<svg width="600" height="160" viewBox="0 0 600 160" xmlns="http://www.w3.org/2000/svg">
  <style>
    .bg { fill: #ffffff; stroke: #e1e4e8; }
    .text-title { fill: #2b3137; font-weight: 600; font-size: 15px; }
    .chart-line { stroke: #0366d6; fill: none; }
    .chart-dot { fill: #ffffff; stroke: #0366d6; }
    .grad-start { stop-color: #0366d6; stop-opacity: 0.4; }
    .grad-end { stop-color: #0366d6; stop-opacity: 0.0; }
    
    @media (prefers-color-scheme: dark) {
      .bg { fill: #0d1117; stroke: #30363d; }
      .text-title { fill: #c9d1d9; }
      .chart-line { stroke: #58a6ff; }
      .chart-dot { fill: #0d1117; stroke: #58a6ff; }
      .grad-start { stop-color: #58a6ff; stop-opacity: 0.3; }
      .grad-end { stop-color: #58a6ff; stop-opacity: 0.0; }
    }
    
    @keyframes pulse {
      0% { r: 4; stroke-width: 2.5; }
      50% { r: 5.5; stroke-width: 4; stroke-opacity: 0.6; }
      100% { r: 4; stroke-width: 2.5; }
    }
    .dot-pulse { animation: pulse 2s infinite; }
    @keyframes draw {
      from { stroke-dashoffset: 1000; }
      to { stroke-dashoffset: 0; }
    }
    .animated-line {
      stroke-dasharray: 1000;
      stroke-dashoffset: 1000;
      animation: draw 1.5s ease-out forwards;
    }
  </style>
  <defs>
    <filter id="shadow2" x="-5%" y="-5%" width="110%" height="110%">
      <feDropShadow dx="0" dy="4" stdDeviation="5" flood-opacity="0.05" />
    </filter>
    <linearGradient id="fillGrad" x1="0" y1="0" x2="0" y2="1">
      <stop offset="0%" class="grad-start"/>
      <stop offset="100%" class="grad-end"/>
    </linearGradient>
  </defs>
  <rect class="bg" width="600" height="160" rx="10" filter="url(#shadow2)" stroke-width="1"/>
  <g font-family="-apple-system,BlinkMacSystemFont,'Segoe UI',Helvetica,Arial,sans-serif">
    <text x="25" y="30" class="text-title">📈 Download Growth (Current: 34)</text>
  </g>

  <!-- Area under the line -->
  <path fill="url(#fillGrad)" d="M 35.0,125.0 C 184.30583636608708,125.0 184.30583636608708,117.05882352941177 333.61167273217416,117.05882352941177 C 345.50613290200835,117.05882352941177 345.50613290200835,114.41176470588235 357.40059307184254,114.41176470588235 C 367.8662892573123,114.41176470588235 367.8662892573123,109.11764705882354 378.33198544278207,109.11764705882354 C 394.36986116727326,109.11764705882354 394.36986116727326,85.29411764705883 410.4077368917644,85.29411764705883 C 424.7310958350182,85.29411764705883 424.7310958350182,82.64705882352942 439.05445477827203,82.64705882352942 C 448.26998247742284,82.64705882352942 448.26998247742284,64.11764705882354 457.48551017657365,64.11764705882354 C 465.09367839331446,64.11764705882354 465.09367839331446,50.88235294117648 472.70184661005527,50.88235294117648 C 499.59832861571647,50.88235294117648 499.59832861571647,40.294117647058826 526.4948106213776,40.294117647058826 C 538.3892707912119,40.294117647058826 538.3892707912119,35.0 550.283730961046,35.0 C 557.6418654805229,35.0 557.6418654805229,72.05882352941177 565.0,72.05882352941177 L 565.0,125 L 35.0,125 Z" />

  <!-- Main curve -->
  <path d="M 35.0,125.0 C 184.30583636608708,125.0 184.30583636608708,117.05882352941177 333.61167273217416,117.05882352941177 C 345.50613290200835,117.05882352941177 345.50613290200835,114.41176470588235 357.40059307184254,114.41176470588235 C 367.8662892573123,114.41176470588235 367.8662892573123,109.11764705882354 378.33198544278207,109.11764705882354 C 394.36986116727326,109.11764705882354 394.36986116727326,85.29411764705883 410.4077368917644,85.29411764705883 C 424.7310958350182,85.29411764705883 424.7310958350182,82.64705882352942 439.05445477827203,82.64705882352942 C 448.26998247742284,82.64705882352942 448.26998247742284,64.11764705882354 457.48551017657365,64.11764705882354 C 465.09367839331446,64.11764705882354 465.09367839331446,50.88235294117648 472.70184661005527,50.88235294117648 C 499.59832861571647,50.88235294117648 499.59832861571647,40.294117647058826 526.4948106213776,40.294117647058826 C 538.3892707912119,40.294117647058826 538.3892707912119,35.0 550.283730961046,35.0 C 557.6418654805229,35.0 557.6418654805229,72.05882352941177 565.0,72.05882352941177" class="chart-line animated-line" stroke-width="2.5" stroke-linecap="round" stroke-linejoin="round" />

  <!-- Bright endpoint dot -->
  <circle cx="565.0" cy="72.1" r="4" class="chart-dot dot-pulse" stroke-width="2.5" />
</svg>